<svg width="175" height="175" viewBox="0 0 175 175" fill="none" xmlns="http://www.w3.org/2000/svg">
<g clip-path="url(#clip0_57_4401)">
<path d="M60.6866 130.851C84.3793 130.851 103.586 112.766 103.586 90.4569C103.586 68.1477 84.3793 50.0625 60.6866 50.0625C36.9939 50.0625 17.7871 68.1477 17.7871 90.4569C17.7871 112.766 36.9939 130.851 60.6866 130.851Z" fill="#F4F6F9"/>
<path d="M136.215 89.9871L134.461 88.484L132.395 86.7305L123.533 79.2466L122.625 80.3112C122.28 80.5304 122.03 80.8435 121.936 81.2819L120.026 88.8285C119.869 89.3922 120.026 90.0184 120.402 90.5508L118.022 93.3376C118.178 92.8992 118.272 92.4609 118.304 91.9912C118.366 91.3023 118.21 90.4881 117.615 90.1437C117.082 89.8305 116.393 89.9871 115.861 90.3002C115.329 90.6447 114.922 91.1144 114.452 91.4902C112.604 92.9932 110.005 92.9932 107.657 93.3063C98.4508 94.5589 89.8082 99.7882 86.1132 108.587L86.0193 108.619C84.6102 109.245 83.4516 110.404 82.8567 111.844L82.7314 111.719C80.0384 111.468 77.6586 113.316 75.7485 115.226C70.5191 120.518 66.6049 127.094 64.5069 134.233L64.7575 132.699C58.6826 118.263 50.0088 104.548 39.4248 93.4316L39.2683 94.4962C39.7067 89.2982 41.0532 71.5434 41.0532 71.5434C44.8108 70.604 52.4512 68.6 52.4512 68.6C48.0047 63.0888 43.1511 56.7322 38.1723 50.5008C36.5127 48.4341 34.3207 46.5866 31.753 45.8977L23.5489 45.7725L20.261 59.112C18.2569 58.1413 15.6579 58.517 14.0609 60.0827C12.2447 61.8989 12.0255 65.0929 13.5912 67.1282C14.5619 68.4121 16.1902 69.1323 17.7872 69.1949L17.7559 69.3202C15.063 75.7708 12.5892 81.0628 9.83359 86.6366C9.83359 86.6366 7.51642 91.0204 5.04265 92.6487C3.97799 93.3689 3.8214 104.955 4.0406 117.825C3.41433 117.981 2.81939 118.138 2.22444 118.326C1.31635 118.608 0.314298 119.14 0.251671 120.079C0.220358 120.768 0.815322 121.363 1.47291 121.582C2.13049 121.802 2.85069 121.708 3.53959 121.645C3.72747 121.614 3.91536 121.614 4.10325 121.582C4.10325 121.739 4.10325 121.896 4.10325 122.052C3.69617 122.146 3.28909 122.209 2.88201 122.303C1.97392 122.522 0.90927 122.992 0.81533 123.931C0.752703 124.62 1.28502 125.246 1.94261 125.497C2.60019 125.747 3.32039 125.716 4.00929 125.684C4.07192 125.684 4.13454 125.684 4.19716 125.684C4.19716 125.747 4.19716 125.778 4.19716 125.841C3.97797 125.872 3.72748 125.872 3.50828 125.904C2.56888 125.998 1.47288 126.342 1.25369 127.25C1.09712 127.939 1.56683 128.628 2.16179 128.972C2.75674 129.317 3.47696 129.379 4.16586 129.411C4.19717 129.411 4.25981 129.411 4.29112 129.411C4.29112 129.724 4.32242 130.037 4.32242 130.319C3.91535 130.413 3.50827 130.475 3.10119 130.569C2.1931 130.789 1.12845 131.258 1.03451 132.198C0.971882 132.887 1.5042 133.513 2.16179 133.795C2.81937 134.045 3.53957 134.014 4.22847 133.983C4.2911 133.983 4.35375 133.983 4.44769 133.983C4.76082 144.629 5.13657 153.178 5.13657 153.178C5.13657 153.178 19.8852 134.264 37.7026 148.794C56.4907 164.137 75.2788 143.157 87.4911 149.42C99.7033 155.683 100.236 164.764 100.236 164.764C102.146 160.317 102.177 155.119 100.361 150.673C99.3588 148.23 97.7932 145.913 97.7306 143.283C97.6366 140.84 98.8265 138.586 99.4841 136.237C100.956 131.039 99.7346 125.121 96.2901 120.925L96.3527 120.768C97.7932 118.764 98.576 116.29 98.5447 113.817L99.0144 113.942C100.33 113.723 101.645 113.222 102.897 112.877C103.116 112.815 103.304 112.752 103.461 112.721C103.524 112.783 103.586 112.877 103.68 112.94L106.248 115.101C106.968 115.695 108.033 115.633 108.659 114.913L110.037 113.284C110.914 113.19 111.79 112.971 112.604 112.689C112.918 112.595 113.231 112.47 113.513 112.314C113.638 112.376 113.763 112.408 113.888 112.47C115.11 112.971 115.767 112.564 116.112 112L116.174 111.875C116.519 111.03 116.206 110.028 115.579 109.339C115.485 109.245 115.391 109.151 115.266 109.057C115.266 109.026 115.297 108.994 115.297 108.963C116.174 109.339 117.082 109.715 118.116 110.153C119.337 110.654 119.994 110.247 120.339 109.683L120.402 109.558C120.746 108.713 120.433 107.711 119.807 107.022C119.18 106.333 118.335 105.957 117.489 105.613C117.301 105.55 117.082 105.456 116.894 105.393C116.926 105.362 116.926 105.331 116.957 105.299C117.865 105.55 118.742 105.8 119.807 106.082C121.09 106.427 121.685 105.926 121.967 105.299L121.999 105.174C122.249 104.297 121.779 103.327 121.059 102.763C121.028 102.732 120.996 102.7 120.965 102.669C121.811 102.794 122.781 103.358 123.595 103.64C124.504 103.953 125.443 104.235 126.351 104.485C126.821 104.611 127.322 104.736 127.823 104.704C128.324 104.673 128.825 104.423 129.075 104.016C129.357 103.515 129.232 102.857 128.919 102.387C128.574 101.918 128.073 101.604 127.572 101.323C125.787 100.321 123.815 99.6943 121.811 99.2246L125.537 94.8094C125.975 94.9346 126.445 94.9346 126.883 94.7781L134.179 91.8033C134.399 91.7094 134.587 91.5841 134.743 91.4275L134.806 91.4902L136.215 89.9871Z" fill="white"/>
<path d="M31.2513 66.5337C31.2513 67.4731 30.625 68.2246 29.8422 68.2246C29.0594 68.2246 28.4331 67.4731 28.4331 66.5337C28.4331 65.5943 29.9362 61.9619 29.9362 61.9619C29.9362 61.9619 31.2513 65.6256 31.2513 66.5337Z" fill="#9ED5F0"/>
<path d="M164.835 43.9566C154.94 35.5959 142.133 34.4999 136.215 41.5141C135.4 42.4848 134.743 43.5495 134.273 44.7081L134.117 44.5515L123.783 79.3095L136.622 89.9561L169.188 74.2994L169.125 74.2367C170.221 73.5791 171.192 72.7337 172.037 71.7316C177.956 64.78 174.73 52.3173 164.835 43.9566Z" fill="#5AA5D9"/>
<path d="M18.5697 127.125C18.6636 127.72 17.7555 127.971 17.6616 127.376C17.3171 125.215 17.8495 123.117 18.5697 121.05C19.2273 119.203 20.0101 117.387 20.3545 115.477C20.7616 113.253 20.2606 111.093 19.8848 108.901C19.5717 107.053 19.4152 105.174 19.9162 103.327C20.3546 101.761 21.2626 100.29 22.7657 99.538C23.298 99.2562 23.7677 100.07 23.2354 100.352C21.6071 101.166 20.8556 102.92 20.6051 104.642C20.3545 106.584 20.7616 108.494 21.0748 110.372C21.4192 112.408 21.5445 114.412 21.0748 116.447C20.2919 119.954 17.9747 123.399 18.5697 127.125ZM0.94017 93.9016C1.12805 85.7601 1.28464 77.6185 1.47252 69.477C1.53515 67.1912 1.56646 64.874 1.62909 62.5881C1.62909 61.9931 0.689685 61.9931 0.689685 62.5881C0.501804 70.7296 0.345214 78.8711 0.157333 87.0126C0.0947061 89.2985 0.0633926 91.6157 0.000765658 93.9016C-0.0305478 94.5278 0.908857 94.5278 0.94017 93.9016ZM22.8283 123.587C22.9536 124.276 22.7344 125.027 22.202 125.497C21.8889 125.747 21.5444 125.904 21.1374 125.873C20.7303 125.841 20.3545 125.685 20.0414 125.403C19.603 125.027 19.3525 124.432 19.4151 123.869H19.3838C19.1646 123.743 19.102 123.43 19.2273 123.211C19.603 122.491 20.4798 122.115 21.2939 122.209C22.0141 122.303 22.6717 122.804 22.8283 123.587ZM20.3859 124.338C20.3546 124.276 20.3859 124.338 20.3859 124.338V124.338ZM21.9202 124.025C21.9202 123.963 21.9202 123.931 21.9202 123.869C21.9202 123.869 21.9202 123.869 21.9202 123.837V123.806C21.9202 123.775 21.9202 123.775 21.9202 123.743C21.9202 123.681 21.8889 123.649 21.8576 123.587C21.8576 123.555 21.8263 123.524 21.8263 123.524C21.8263 123.493 21.795 123.462 21.7636 123.462C21.7323 123.399 21.6697 123.368 21.6384 123.336C21.6071 123.305 21.5758 123.305 21.5758 123.305C21.5445 123.274 21.5132 123.274 21.4818 123.242C21.4192 123.211 21.3566 123.211 21.2939 123.18C21.2626 123.18 21.2313 123.18 21.2 123.148C21.1374 123.148 21.0748 123.148 21.0121 123.148C20.9808 123.148 20.9495 123.148 20.8869 123.148C20.8556 123.18 20.7616 123.18 20.699 123.18C20.6364 123.211 20.5737 123.211 20.5111 123.242C20.4798 123.242 20.4485 123.274 20.4485 123.274L20.4172 123.305C20.5111 123.462 20.5111 123.649 20.4172 123.775C20.4172 123.775 20.4172 123.806 20.3859 123.806C20.3859 123.837 20.3545 123.9 20.3545 123.9V123.931C20.3545 123.931 20.3545 123.994 20.3545 124.025C20.3545 124.056 20.3545 124.088 20.3545 124.119C20.3545 124.119 20.4172 124.307 20.4172 124.338C20.4172 124.338 20.4172 124.37 20.4485 124.37C20.4798 124.401 20.4798 124.432 20.5111 124.464C20.5424 124.495 20.5424 124.526 20.5738 124.557C20.5738 124.557 20.5737 124.557 20.6051 124.589C20.6677 124.651 20.699 124.714 20.7616 124.745C20.7616 124.745 20.7616 124.745 20.7929 124.745C20.8242 124.777 20.8556 124.777 20.8869 124.808C20.9182 124.839 20.9495 124.839 20.9808 124.871C21.0434 124.871 21.1061 124.902 21.1687 124.933C21.2 124.933 21.2313 124.933 21.2626 124.933C21.2939 124.933 21.3253 124.933 21.3253 124.933C21.3566 124.933 21.3879 124.902 21.4192 124.902C21.4818 124.871 21.5131 124.839 21.5758 124.808C21.6071 124.777 21.6071 124.777 21.6384 124.745C21.6697 124.714 21.701 124.683 21.7323 124.62C21.7323 124.62 21.7323 124.62 21.7323 124.589C21.7636 124.557 21.7637 124.526 21.795 124.495C21.8263 124.464 21.8263 124.401 21.8576 124.37V124.338C21.8576 124.307 21.8889 124.276 21.8889 124.244C21.9202 124.182 21.9202 124.119 21.9202 124.056C21.9202 124.088 21.9202 124.056 21.9202 124.025ZM12.9019 128.753C12.9019 128.785 12.902 128.847 12.8706 128.879C12.8706 128.91 12.8706 128.973 12.8393 129.004C12.6827 129.63 12.2444 130.1 11.6807 130.319C12.307 130.82 12.7141 131.509 12.7767 132.323C12.7767 132.386 12.7767 132.448 12.7454 132.511C12.7454 132.542 12.7454 132.574 12.7454 132.574C12.6514 133.325 12.1191 133.889 11.3989 134.139C10.8979 134.296 10.3655 134.296 9.86452 134.296C9.26956 134.327 8.67462 134.327 8.07966 134.359C7.2342 134.39 6.38874 134.421 5.54328 134.453C5.73116 142.062 6.01296 149.671 6.42003 157.249C6.45134 157.844 5.51194 157.844 5.48063 157.249C5.16749 151.487 4.94832 145.694 4.76044 139.932C4.69781 138.116 4.6665 136.3 4.60387 134.484C3.72709 134.515 2.81898 134.546 2.03614 134.139C1.28462 133.732 0.720984 132.887 0.908865 132.01C1.06543 131.259 1.72304 130.758 2.38062 130.476C3.0382 130.194 3.75841 130.037 4.4473 129.912C3.63315 129.849 2.78769 129.787 2.09879 129.348C1.37858 128.879 0.846238 128.033 1.06543 127.156C1.19069 126.624 1.56644 126.217 2.03614 125.967C1.9422 125.935 1.8796 125.904 1.78566 125.873C1.03413 125.466 0.470499 124.62 0.65838 123.743C0.814947 122.992 1.47252 122.491 2.1301 122.209H2.1614C1.9109 122.178 1.62907 122.115 1.37857 121.99C0.59573 121.645 -0.0305173 120.894 0.0321097 120.017C0.0947367 119.203 0.720976 118.639 1.40987 118.295C2.28665 117.856 3.32002 117.606 4.29074 117.387C4.29074 114.631 4.29073 111.844 4.32204 109.089C4.41598 98.7865 4.69779 88.5157 5.16749 78.2135C5.19881 77.6186 6.13821 77.6186 6.1069 78.2135C5.82508 83.9752 5.63719 89.7682 5.48063 95.5299C5.32406 101.793 5.23014 108.055 5.23014 114.287C6.95238 115.069 8.58068 116.072 10.115 117.168C10.2403 117.23 10.3969 117.293 10.5221 117.387C11.2737 117.856 11.7746 118.577 11.8686 119.453V119.485C11.8686 119.516 11.8686 119.547 11.8686 119.579C11.806 120.361 11.4302 120.988 10.71 121.301C10.5847 121.363 10.4282 121.395 10.3029 121.426C10.616 121.52 10.8979 121.645 11.1484 121.833C11.8999 122.334 12.4009 123.086 12.4636 123.994C12.4636 124.056 12.4636 124.119 12.4322 124.182C12.4322 124.213 12.4322 124.244 12.4322 124.244C12.3383 124.996 11.806 125.56 11.0857 125.81C10.9918 125.841 10.8979 125.841 10.8353 125.873C11.1484 125.998 11.4302 126.186 11.712 126.405C12.4949 127.031 12.9333 127.877 12.9019 128.753ZM5.32406 117.23C6.1069 117.074 6.92107 116.948 7.73522 116.886C7.82916 116.886 7.95442 116.886 8.04836 116.854C7.17158 116.291 6.26346 115.79 5.32406 115.351C5.32406 115.978 5.32406 116.604 5.32406 117.23ZM3.0382 121.332C3.88366 121.301 4.72912 121.144 5.57458 121.082C6.35742 120.988 7.14026 120.925 7.92309 120.862C8.33017 120.831 8.76856 120.769 9.17563 120.737C9.58271 120.706 9.98977 120.675 10.3342 120.549C10.7413 120.393 10.9918 120.111 11.0231 119.673C11.0231 119.641 11.0231 119.641 11.0231 119.61C11.0231 119.579 11.0231 119.579 11.0231 119.547C10.9918 119.203 10.8039 118.921 10.5847 118.671C10.4908 118.639 10.4282 118.608 10.3656 118.545C10.1777 118.389 9.98978 118.263 9.8019 118.107C9.73928 118.076 9.67666 118.044 9.61403 118.044C8.67463 117.731 7.64126 117.856 6.70186 118.013C5.82508 118.138 4.91698 118.326 4.07152 118.545C3.32 118.733 2.53716 118.921 1.87958 119.297C1.40987 119.579 0.90888 120.017 1.15939 120.612C1.44121 121.238 2.3493 121.363 3.0382 121.332ZM3.57051 125.34C4.41598 125.34 5.26143 125.278 6.1069 125.246C6.88973 125.215 7.6726 125.184 8.48675 125.152C8.92514 125.152 9.36351 125.121 9.83321 125.121C10.209 125.121 10.616 125.121 10.9605 124.996C11.3989 124.839 11.5868 124.526 11.6494 124.119V124.088C11.5868 123.274 10.8666 122.647 10.1463 122.397C9.26957 122.084 8.29887 122.178 7.39078 122.24C6.48269 122.303 5.60588 122.428 4.69779 122.585C3.97758 122.71 3.19474 122.835 2.50585 123.18C2.03614 123.399 1.47251 123.837 1.6917 124.464C1.97352 125.184 2.88161 125.34 3.57051 125.34ZM10.3342 130.664C9.45744 130.35 8.48674 130.444 7.57865 130.507C6.67056 130.57 5.76248 130.695 4.8857 130.851C4.16549 130.977 3.38265 131.102 2.69376 131.415C2.22405 131.634 1.66038 132.073 1.87958 132.699C2.1614 133.451 3.06949 133.607 3.75838 133.607C4.60385 133.607 5.44934 133.544 6.29481 133.513C7.07765 133.482 7.86048 133.451 8.67463 133.451C9.11301 133.451 9.55138 133.419 10.0211 133.419C10.3968 133.419 10.804 133.419 11.1484 133.294C11.5868 133.137 11.7747 132.824 11.8373 132.417V132.386C11.7747 131.54 11.0544 130.914 10.3342 130.664ZM11.9312 128.753C12.0565 126.718 9.45744 126.405 7.98571 126.342C7.0463 126.28 6.13824 126.28 5.19884 126.342C4.44731 126.374 3.63315 126.405 2.91294 126.655C2.38061 126.843 1.81695 127.25 2.03614 127.877C2.28665 128.628 3.13214 128.879 3.82103 128.973C5.41802 129.192 7.07764 129.255 8.67463 129.411C9.0817 129.442 9.52009 129.505 9.92717 129.536C10.3029 129.568 10.71 129.63 11.0857 129.568C11.5555 129.474 11.8373 129.192 11.9312 128.753ZM21.9202 123.837C21.9202 123.806 21.9202 123.806 21.9202 123.806C21.9202 123.837 21.9202 123.869 21.9202 123.837C21.9202 123.869 21.9202 123.837 21.9202 123.837ZM95.7574 116.51C96.1332 115.946 96.509 115.351 96.8848 114.788C97.01 114.568 96.9474 114.255 96.7282 114.13C96.4777 114.005 96.2271 114.067 96.0706 114.287C95.6948 114.85 95.319 115.445 94.9433 116.009C94.818 116.228 94.8806 116.541 95.0998 116.666C95.3503 116.823 95.6009 116.729 95.7574 116.51ZM137.185 89.9248L135.275 92.1793L135.15 92.0854C135.025 92.148 134.899 92.242 134.774 92.2733L127.478 95.2481C127.196 95.3733 126.883 95.4046 126.57 95.4046C126.413 95.4046 126.288 95.4046 126.132 95.3733L123.219 98.8178C124.66 99.2248 126.069 99.7259 127.415 100.383C128.386 100.884 129.482 101.479 129.733 102.607C129.983 103.703 129.294 104.673 128.198 104.861C127.541 104.987 126.914 104.83 126.288 104.642C125.631 104.454 124.973 104.266 124.315 104.047C123.72 103.859 123.157 103.64 122.593 103.421C122.593 103.421 122.562 103.421 122.562 103.39C122.875 103.985 123 104.642 122.844 105.3C122.844 105.362 122.812 105.394 122.781 105.456C122.781 105.488 122.75 105.519 122.75 105.55C122.405 106.27 121.716 106.677 120.933 106.677C120.777 106.677 120.62 106.646 120.432 106.615C120.589 106.771 120.714 106.897 120.84 107.085C121.372 107.836 121.591 108.807 121.247 109.684C121.247 109.715 121.215 109.746 121.184 109.777C121.184 109.809 121.153 109.871 121.121 109.903C120.652 110.654 119.869 110.967 118.992 110.811C118.428 110.717 117.927 110.435 117.395 110.216C117.207 110.153 117.051 110.059 116.863 109.997C117.145 110.623 117.207 111.375 116.957 112.032C116.957 112.063 116.925 112.095 116.894 112.126C116.894 112.157 116.863 112.22 116.831 112.251C116.362 113.003 115.579 113.316 114.702 113.159C114.138 113.065 113.637 112.784 113.105 112.564C112.729 112.408 112.322 112.251 111.946 112.063L109.254 115.257C108.878 115.696 108.345 115.978 107.782 116.009C107.719 116.009 107.657 116.009 107.594 116.009C107.093 116.009 106.592 115.821 106.185 115.508L103.617 113.347C103.492 113.222 103.367 113.097 103.273 112.971C103.116 113.003 102.96 113.065 102.803 113.097C101.613 113.441 100.454 113.88 99.2333 114.099C99.1706 116.541 98.4191 118.921 97.0413 120.925C99.6403 124.276 100.987 128.534 100.736 132.762C100.611 134.828 100.047 136.77 99.3585 138.711C98.6383 140.747 98.0434 142.782 98.607 144.911C99.1393 146.947 100.267 148.794 101.049 150.736C101.832 152.708 102.271 154.806 102.333 156.904C102.49 160.912 101.363 164.952 99.0453 168.271C96.916 171.34 93.9099 173.72 90.4341 175.097C89.8705 175.317 89.62 174.409 90.1836 174.189C93.9412 172.718 97.1352 169.899 99.1393 166.392C101.112 162.948 101.832 158.814 101.206 154.869C100.893 152.834 100.173 150.955 99.2959 149.107C98.4504 147.322 97.5423 145.475 97.4171 143.439C97.2918 141.31 98.1373 139.337 98.8262 137.365C99.4524 135.549 99.8282 133.67 99.7968 131.76C99.7968 128.002 98.513 124.244 96.1332 121.301C96.0079 121.176 96.0079 121.019 96.0392 120.862C96.0079 120.769 96.0393 120.675 96.1019 120.549C97.4171 118.702 98.1372 116.51 98.2312 114.255C94.0038 113.347 89.9957 111.562 86.4886 109.057H86.4573C86.1129 109.214 85.7997 109.402 85.4866 109.59C85.2987 109.715 85.2361 109.746 85.1108 109.903C84.9856 110.028 84.829 110.153 84.7038 110.279C84.5785 110.404 84.4533 110.56 84.328 110.686C84.2654 110.78 84.2341 110.78 84.2028 110.842C84.1402 110.905 84.1088 110.999 84.0462 111.061C83.9522 111.218 83.8583 111.375 83.7644 111.531C83.733 111.625 83.6704 111.688 83.6391 111.782C83.6078 111.813 83.6078 111.876 83.5765 111.907C83.5765 111.907 83.5139 112.032 83.5452 111.969C83.4825 112.126 83.3886 112.251 83.232 112.283C83.6704 113.065 84.2028 113.817 84.7977 114.506C84.7977 114.475 84.829 114.475 84.8603 114.443C85.424 113.88 86.0189 113.285 86.5826 112.721C86.7704 112.533 87.0523 112.564 87.2402 112.721C87.4281 112.878 87.4281 113.222 87.2402 113.379C86.6765 113.942 86.0816 114.537 85.5179 115.101C85.4866 115.132 85.4553 115.163 85.424 115.163C86.2068 115.946 87.0836 116.666 88.023 117.261C88.3988 116.76 88.7432 116.228 89.119 115.727C89.2756 115.508 89.526 115.445 89.7765 115.57C89.9957 115.696 90.0897 116.009 89.9331 116.228C89.5573 116.729 89.2129 117.261 88.8371 117.762C89.5573 118.138 90.3089 118.451 91.0918 118.702C91.6554 118.89 91.4362 119.798 90.8412 119.61C89.9018 119.328 89.025 118.952 88.1796 118.483C88.0856 118.514 87.9604 118.483 87.8664 118.42C87.7725 118.357 87.7099 118.295 87.6785 118.17C85.4866 116.854 83.6391 114.976 82.4179 112.721C82.324 112.533 82.3553 112.345 82.4492 112.22C80.5078 112.283 78.7855 113.379 77.3764 114.631C75.1845 116.573 73.243 118.858 71.5834 121.301C71.5834 121.363 71.5521 121.426 71.5208 121.52C71.0824 122.24 70.644 122.992 70.2056 123.743C68.4834 126.812 66.949 129.975 65.7591 133.294C67.1369 136.644 68.3894 140.026 69.5167 143.471C70.0804 145.193 70.644 146.915 71.0511 148.669C71.3642 150.109 71.5521 151.8 70.7066 153.115C69.8612 154.462 68.2329 154.9 66.7611 154.524C65.2268 154.149 64.0369 153.053 63.2854 151.706C62.5025 150.235 62.2207 148.544 62.1894 146.915C62.1268 145.193 62.3146 143.44 62.5651 141.749C62.9409 139.275 63.5672 136.832 64.3813 134.453C64.35 134.359 64.35 134.296 64.3813 134.171C64.4753 133.826 64.6005 133.482 64.7258 133.137C64.2248 131.947 63.7237 130.758 63.1914 129.599C60.2166 123.023 56.7095 116.666 52.7327 110.654C49.0377 105.049 44.873 99.7259 40.3013 94.8097C40.2386 94.9036 40.1447 94.9975 40.0194 95.0288C37.577 96.0622 34.9779 96.6884 32.3476 96.939C27.8698 97.346 23.3293 96.5945 19.2273 94.7157C15.4383 92.9935 12.0565 90.3005 9.48877 87.0126C9.3322 86.8247 9.30089 86.5429 9.48877 86.355C9.58271 86.2611 9.70795 86.2298 9.86452 86.2298C10.4282 85.1025 10.9605 83.9752 11.5241 82.8479C13.6221 78.4953 15.5949 74.1114 17.4424 69.6962C15.908 69.477 14.4676 68.7255 13.5282 67.5043C11.8373 65.2497 12.0565 61.8365 14.0605 59.8325C15.2504 58.6426 17.004 58.0789 18.6636 58.2042C16.1899 53.1001 15.9707 42.5787 21.5758 39.9171C28.8718 36.4726 33.4123 41.6707 38.4537 34.5625C41.3346 38.4454 38.9861 44.0192 36.7315 45.3343C35.8547 45.8667 34.978 46.1485 34.1638 46.3051C35.3537 46.9 36.4184 47.7142 37.3578 48.6536C38.8295 50.0627 40.0194 51.7849 41.272 53.3506C42.6184 55.0728 43.9649 56.7638 45.3114 58.486C47.8791 61.7739 50.4468 65.0619 53.0771 68.3185C53.2963 68.569 53.2337 69.0074 52.858 69.1013C52.5135 69.1952 52.2004 69.2892 51.8559 69.3518C48.5054 70.2286 45.1235 71.1053 41.773 71.9821C41.7103 72.6084 41.679 73.2347 41.6164 73.8609C41.3346 77.4307 41.0841 81.0004 40.8023 84.5388C40.5831 87.451 40.3639 90.3631 40.1134 93.2753C40.7083 93.9016 41.272 94.5278 41.8669 95.1541C46.8771 100.697 51.3549 106.677 55.3004 113.003C59.058 118.984 62.3146 125.278 65.1015 131.791C65.6025 130.382 66.1662 129.004 66.7925 127.658C68.5147 123.963 70.738 120.518 73.3683 117.449C74.6521 115.946 76.0299 114.443 77.5956 113.222C79.13 112.032 80.9148 111.155 82.8876 111.281C83.5765 109.965 84.6411 108.869 86.0189 108.274C86.2068 107.867 86.3634 107.46 86.5513 107.085C88.3362 103.452 91.123 100.383 94.4109 98.0349C97.7302 95.6864 101.582 94.0894 105.527 93.2753C106.561 93.0561 107.594 92.8995 108.627 92.7743C109.723 92.649 110.819 92.5551 111.884 92.3046C112.98 92.0228 113.951 91.5844 114.765 90.8015C115.548 90.05 116.581 89.2045 117.771 89.6429C118.648 89.9561 118.961 90.8955 118.992 91.7409L120.025 90.5197C119.712 89.9561 119.618 89.3298 119.775 88.7348L121.685 81.1883C121.716 81.063 121.748 80.9378 121.81 80.8439L121.842 80.8125C121.998 80.4681 122.249 80.1862 122.53 79.9984L123.689 78.6206L125.693 80.3115L134.962 88.1399L137.185 89.9248ZM40.4578 77.963C40.6144 75.865 40.771 73.767 40.9275 71.6377C40.9275 71.4185 41.0528 71.2306 41.272 71.1993C42.2427 70.9488 43.2134 70.6983 44.1841 70.4478C46.7831 69.7902 49.3821 69.1013 51.9499 68.4124C50.6973 66.8467 49.4448 65.281 48.2235 63.7154C45.5932 60.3648 42.9942 57.0143 40.3326 53.6637C38.078 50.8455 35.8547 47.6828 32.285 46.5242C29.7173 46.7121 27.6193 46.5556 26.2102 50.4698C25.2708 53.1314 25.8657 56.7325 22.202 58.987L21.2 58.9557C21.3566 59.0497 21.5445 59.1749 21.701 59.2689C21.9202 59.4254 21.9516 59.7072 21.795 59.9264C21.6384 60.1456 21.3566 60.177 21.1374 60.0204C19.2899 58.6113 16.3464 58.7991 14.7181 60.4274C13.0898 62.0557 12.8706 64.9992 14.2797 66.8467C15.6889 68.6942 18.5697 69.2891 20.6051 68.1305C20.8243 68.0053 21.1061 68.068 21.2313 68.3185C21.3566 68.5377 21.294 68.8195 21.0435 68.9447C20.2293 69.4144 19.3212 69.6336 18.4131 69.6649C17.8495 70.9801 17.3171 72.2639 16.7535 73.5791C14.812 78.0569 12.7141 82.4721 10.5847 86.8247C11.8999 88.4217 13.3716 89.8621 15.0312 91.0834C18.3505 93.5571 22.2647 95.1854 26.3667 95.7804C30.6567 96.4066 35.1032 95.8743 39.1426 94.2773C39.2679 92.7116 39.3932 91.146 39.5184 89.5803C39.8629 85.76 40.176 81.8459 40.4578 77.963ZM65.352 134.609C64.35 137.615 63.5672 140.715 63.2854 143.878C63.0035 146.821 62.8783 150.673 65.352 152.771C66.3541 153.648 68.045 154.117 69.2349 153.366C70.5501 152.552 70.5501 150.798 70.3309 149.483C70.0491 147.823 69.4541 146.195 68.9531 144.598C68.4208 142.907 67.8571 141.216 67.2622 139.525C66.6359 137.897 66.0096 136.237 65.352 134.609ZM114.326 97.4087C113.794 97.5026 113.262 97.5339 112.761 97.7531C112.26 97.9723 111.978 98.442 111.665 98.8491C111.289 99.3188 110.851 99.6946 110.412 100.102C109.535 100.978 108.721 101.887 107.719 102.638C105.872 104.047 103.335 104.861 101.081 103.984C100.517 103.765 100.768 102.857 101.331 103.076C101.832 103.264 102.365 103.39 102.897 103.421C105.245 103.483 107.218 102.043 108.784 100.477C109.191 100.07 109.567 99.6319 110.005 99.2249C110.412 98.8491 110.757 98.5047 111.101 98.0663C111.383 97.6905 111.696 97.2834 112.103 97.0642C112.604 96.7824 113.168 96.6885 113.731 96.5945C114.389 96.5006 114.984 96.2814 115.548 95.9682L117.896 93.1813C118.147 92.4611 118.366 91.3339 117.802 90.7389C116.988 89.8934 115.767 91.3339 115.172 91.8349C113.543 93.2127 111.414 93.4945 109.379 93.7137C107.437 93.9329 105.559 94.246 103.68 94.7784C100.047 95.8117 96.5716 97.5026 93.6281 99.8824C90.8099 102.168 88.524 105.049 87.0523 108.368C90.4967 110.811 94.4109 112.564 98.5443 113.441C98.6069 113.347 98.7009 113.285 98.8262 113.285C99.4524 113.191 100.047 113.034 100.642 112.846C101.237 112.658 101.801 112.47 102.365 112.314C102.552 112.251 102.709 112.22 102.897 112.157C102.772 111.531 102.928 110.873 103.367 110.341L114.326 97.4087ZM110.569 104.579C110.882 104.141 111.383 103.922 111.884 103.859C111.539 103.452 111.32 102.889 111.352 102.356L108.158 106.145C108.252 106.145 108.345 106.145 108.408 106.145C109.066 106.176 109.723 106.333 110.381 106.49C110.162 105.863 110.162 105.112 110.569 104.579ZM111.101 111.688C110.318 111.375 109.567 111.03 108.784 110.717C107.907 110.372 106.999 110.028 106.435 109.245C106.279 109.057 106.185 108.838 106.122 108.588L104.181 110.873C103.742 111.406 103.805 112.189 104.337 112.627L106.905 114.788C107.437 115.226 108.22 115.163 108.659 114.631L111.101 111.688ZM114.953 109.214C114.326 108.932 113.669 108.682 113.042 108.431C112.604 108.243 112.134 108.087 111.727 107.836C111.352 107.711 111.007 107.617 110.631 107.523C109.911 107.335 109.128 107.116 108.377 107.085C107.844 107.053 107.124 107.147 106.968 107.742C106.78 108.462 107.437 109.057 108.001 109.37C108.721 109.746 109.504 110.028 110.224 110.31C110.944 110.623 111.665 110.905 112.416 111.218C113.199 111.531 113.982 111.969 114.765 112.189C115.297 112.345 115.767 112.251 116.08 111.782C116.08 111.782 116.08 111.75 116.111 111.75C116.518 110.654 115.861 109.809 114.953 109.214ZM117.332 105.957C116.675 105.707 115.986 105.488 115.297 105.3C115.109 105.268 114.953 105.206 114.765 105.174C114.42 105.08 114.045 105.018 113.7 104.893C113.324 104.83 112.98 104.767 112.604 104.736C112.072 104.705 111.352 104.799 111.195 105.394C111.038 106.051 111.539 106.615 112.072 106.928C112.855 107.178 113.606 107.46 114.326 107.773C114.733 107.961 115.141 108.181 115.516 108.431C115.892 108.588 116.268 108.744 116.644 108.901C117.426 109.214 118.209 109.652 118.992 109.871C119.524 110.028 119.994 109.934 120.307 109.464C120.307 109.464 120.307 109.433 120.339 109.433C121.027 107.554 118.742 106.49 117.332 105.957ZM120.902 102.982C120.151 102.481 119.274 102.262 118.397 102.074C117.52 101.886 116.612 101.73 115.735 101.636C115.015 101.542 114.232 101.448 113.481 101.542C112.949 101.605 112.26 101.886 112.322 102.544C112.385 103.327 113.168 103.734 113.825 103.953C113.888 103.985 113.919 103.984 113.982 103.984C114.514 104.11 115.015 104.235 115.548 104.392C115.641 104.423 115.735 104.454 115.829 104.486C115.986 104.517 116.111 104.548 116.268 104.579C117.019 104.767 117.802 104.987 118.554 105.206C118.961 105.331 119.368 105.425 119.775 105.519C120.151 105.613 120.558 105.769 120.965 105.769C121.466 105.769 121.779 105.55 121.967 105.112C121.967 105.112 121.967 105.112 121.967 105.08C122.123 104.235 121.591 103.421 120.902 102.982ZM122.562 99.6006L120.714 101.793C120.808 101.824 120.902 101.886 120.996 101.918C121.059 101.918 121.121 101.918 121.184 101.949C121.716 102.043 122.217 102.262 122.718 102.481C123.282 102.732 123.814 102.951 124.378 103.108C124.973 103.296 125.599 103.483 126.194 103.671C126.789 103.828 127.447 104.078 128.073 103.953C128.543 103.859 128.918 103.515 128.856 102.982C128.793 102.45 128.386 102.074 127.948 101.793C127.008 101.166 125.912 100.697 124.848 100.321C124.096 100.008 123.345 99.7885 122.562 99.6006ZM125.756 94.7784C124.127 93.5571 122.499 92.3046 120.871 91.0834L118.71 93.6197C118.554 94.0581 118.334 94.4965 118.053 94.8723C117.552 95.6238 116.863 96.2501 116.111 96.6885L112.729 100.697C113.011 100.603 113.262 100.571 113.544 100.54C114.483 100.446 115.485 100.603 116.424 100.728C117.52 100.884 118.648 101.072 119.712 101.385H119.744L125.474 94.5904C125.599 94.7157 125.662 94.747 125.756 94.7784ZM134.367 91.3965L122.656 81.5014L120.777 88.9854C120.683 89.2985 120.746 89.6742 120.902 89.9874C120.965 89.9874 121.027 90.0187 121.059 90.05C122.844 91.3965 124.597 92.743 126.382 94.0894C126.507 94.1834 126.601 94.34 126.601 94.4965C126.789 94.4965 126.946 94.4652 127.102 94.4026L134.367 91.3965ZM134.461 88.8288L125.192 81.0004C124.816 80.6873 124.378 80.5307 123.94 80.5307C123.783 80.5307 123.626 80.562 123.47 80.5933C123.376 80.6246 123.313 80.656 123.251 80.6873L123.219 80.7186L135.087 90.7389C135.119 90.645 135.15 90.551 135.15 90.4571C135.244 89.8934 134.962 89.2672 134.461 88.8288ZM23.2041 107.116C23.2041 107.085 23.2041 107.085 23.2041 107.116C23.2041 107.085 23.2041 107.085 23.2041 107.116ZM30.688 76.0529C28.4021 75.5832 25.9596 76.3973 24.4253 78.1509C24.0182 78.6206 24.7071 79.2782 25.0829 78.8085C26.3981 77.3054 28.4648 76.5539 30.4375 76.9297C31.0325 77.0862 31.2829 76.1781 30.688 76.0529ZM16.7222 61.5547C16.1272 61.5547 16.1272 62.4941 16.7222 62.4941C18.507 62.4628 20.198 63.277 21.2939 64.6548C21.4505 64.8426 21.795 64.8113 21.9516 64.6548C22.1394 64.4669 22.1081 64.1851 21.9516 63.9972C20.699 62.4628 18.7262 61.5547 16.7222 61.5547ZM27.3062 53.6011C27.5253 53.7264 27.8072 53.6637 27.9637 53.4445C28.0577 53.288 28.1516 53.1314 28.2456 53.0062L28.2769 52.9748C28.3082 52.9435 28.3395 52.9122 28.3708 52.8496C28.4334 52.787 28.4961 52.7243 28.5587 52.6617C28.6839 52.5365 28.8092 52.4112 28.9657 52.2859L28.9971 52.2546C29.0284 52.2233 29.0597 52.192 29.091 52.192C29.1849 52.1294 29.2476 52.0981 29.3415 52.0354C29.5607 51.9102 29.6547 51.597 29.4981 51.3778C29.3728 51.1586 29.091 51.0647 28.8405 51.2213C28.1203 51.6597 27.5253 52.2859 27.0869 53.0062C26.993 53.1627 27.087 53.4759 27.3062 53.6011ZM39.675 97.1895C37.5457 98.2855 35.3537 99.3501 33.0052 99.8824C31.8779 100.133 30.7193 100.258 29.5607 100.164C28.4021 100.07 27.3062 99.6946 26.2102 99.2249C25.1455 98.7552 24.1122 98.2855 22.9536 98.0663C21.795 97.8471 20.605 97.8471 19.4151 97.7531C17.505 97.5653 15.6575 96.7824 14.1858 95.5612C12.5888 94.2147 11.3989 92.3672 10.9292 90.3318C10.8039 89.7369 9.89583 89.9874 10.0211 90.5823C10.8979 94.4339 14.1232 97.6592 17.9747 98.5046C19.1646 98.7865 20.4172 98.7865 21.6384 98.8804C22.9223 99.0057 24.0809 99.3814 25.2708 99.8824C26.3667 100.352 27.4627 100.822 28.6526 101.041C29.8425 101.229 31.0637 101.198 32.2537 101.01C35.0406 100.571 37.6083 99.2875 40.082 98.0349C40.677 97.7218 40.2073 96.9077 39.675 97.1895ZM24.0495 106.083C24.3627 106.74 24.2061 107.492 23.7051 108.024C23.4859 108.274 23.1727 108.462 22.8596 108.556C22.6717 108.619 22.4212 108.65 22.2333 108.588C22.0141 108.525 21.8576 108.274 21.701 108.118C21.6697 108.087 21.6697 108.055 21.6384 108.024C21.4192 108.149 21.1687 108.024 21.0121 107.836C20.6051 107.272 20.6364 106.49 20.9808 105.926C21.2939 105.394 21.8889 105.049 22.5152 105.08C23.1414 105.143 23.7677 105.488 24.0495 106.083ZM23.298 106.709C23.298 106.677 23.298 106.677 23.298 106.677C23.298 106.646 23.298 106.615 23.2667 106.584C23.2667 106.552 23.2667 106.552 23.2354 106.521C23.2354 106.552 23.2667 106.552 23.2667 106.584C23.2667 106.584 23.2041 106.49 23.2041 106.458C23.2041 106.427 23.1727 106.427 23.1727 106.396L23.1414 106.364L23.1727 106.396C23.1727 106.364 23.1101 106.302 23.0788 106.302C23.0475 106.27 23.0162 106.239 22.9849 106.208C22.9849 106.208 22.9849 106.208 22.9536 106.208C22.9223 106.176 22.8909 106.176 22.8596 106.145C22.8283 106.114 22.797 106.114 22.7344 106.083C22.7031 106.083 22.6404 106.051 22.703 106.083C22.7657 106.083 22.6717 106.083 22.6717 106.083C22.6091 106.051 22.5778 106.051 22.5152 106.051C22.5152 106.051 22.4839 106.051 22.4526 106.051C22.3899 106.051 22.3586 106.051 22.296 106.051C22.296 106.051 22.3273 106.051 22.2647 106.051H22.2333C22.1707 106.051 22.1394 106.083 22.0768 106.083C22.0768 106.083 22.0768 106.083 22.0455 106.083C22.0142 106.083 22.0142 106.083 22.0455 106.083H22.0142C22.0142 106.083 21.9515 106.114 21.9202 106.145C21.9515 106.114 21.9515 106.145 21.9202 106.145C21.8889 106.145 21.8889 106.176 21.8576 106.176C21.8576 106.176 21.8263 106.239 21.795 106.27C21.795 106.239 21.795 106.239 21.795 106.27C21.795 106.302 21.7636 106.302 21.7636 106.333C21.7323 106.364 21.7323 106.396 21.701 106.427C21.701 106.427 21.701 106.427 21.701 106.458C21.701 106.49 21.701 106.49 21.701 106.49V106.521C21.6697 106.584 21.6697 106.615 21.6697 106.677V106.709V106.74C21.6697 106.771 21.6697 106.771 21.6697 106.74C21.6697 106.771 21.6697 106.834 21.6697 106.865C21.6697 106.897 21.6697 106.959 21.6697 106.991C21.6697 107.022 21.6697 107.053 21.701 107.053C21.701 107.085 21.7323 107.116 21.7323 107.178C21.7323 107.21 21.7636 107.21 21.7636 107.241C21.795 107.272 21.8263 107.335 21.8263 107.366C22.0142 107.272 22.2334 107.304 22.3586 107.46C22.4212 107.523 22.4839 107.586 22.5465 107.648C22.5465 107.648 22.5465 107.648 22.5778 107.648C22.6091 107.648 22.6091 107.648 22.6404 107.617C22.6404 107.617 22.6717 107.617 22.703 107.586C22.7344 107.586 22.7344 107.554 22.7344 107.554C22.797 107.523 22.8283 107.492 22.891 107.46C22.9223 107.429 22.9223 107.429 22.9536 107.398C22.9536 107.398 23.0475 107.304 23.0788 107.272C23.0788 107.272 23.0788 107.241 23.1101 107.241C23.1414 107.21 23.1414 107.178 23.1414 107.178C23.1728 107.147 23.1728 107.116 23.2041 107.085C23.2354 107.053 23.2041 107.053 23.2041 107.053C23.2041 107.022 23.2354 106.959 23.2667 106.928C23.2667 106.897 23.2667 106.865 23.298 106.865C23.298 106.834 23.298 106.771 23.298 106.709ZM22.296 106.02C22.296 106.02 22.3273 106.02 22.296 106.02C22.3273 106.02 22.3273 106.02 22.296 106.02ZM21.9829 106.145C21.9829 106.145 22.0142 106.145 21.9829 106.145C22.0142 106.145 22.0142 106.145 21.9829 106.145ZM33.0991 50.8142C33.0678 50.8142 33.0678 50.8142 33.0365 50.8142C33.0052 50.8142 32.9426 50.8142 32.9113 50.8142C32.8173 50.8142 32.7547 50.7829 32.6608 50.7829C32.5668 50.7829 32.4729 50.7829 32.4102 50.7516C32.3476 50.7829 32.3163 50.8142 32.2537 50.8455C32.0345 50.9081 31.7214 50.7516 31.69 50.5324C31.5961 50.1253 31.9092 49.8122 32.3163 49.8122C32.5355 49.8122 32.786 49.8435 33.0052 49.8748C33.5062 49.9374 34.0072 50.0313 34.4769 50.1253C34.7275 50.1879 34.8527 50.4698 34.7901 50.6889C34.7275 50.9395 34.4456 51.0647 34.2264 51.0021C33.8194 50.9395 33.4749 50.8768 33.0991 50.8142ZM21.8576 106.302C21.8576 106.27 21.8576 106.302 21.8576 106.302V106.302ZM33.9133 54.29C33.788 54.0708 33.4749 54.0082 33.2557 54.1334C33.0365 54.2587 32.9426 54.5718 33.0991 54.791C33.6315 55.6991 33.9759 56.6385 34.1325 57.6719C34.1638 57.9224 34.4769 58.0789 34.6961 57.985C34.9466 57.8911 35.0719 57.6719 35.0093 57.4213C34.8527 56.3254 34.4769 55.2607 33.9133 54.29ZM31.2829 54.9789C31.189 54.7597 30.8446 54.6971 30.6254 54.8223C30.4062 54.9789 30.3436 55.2294 30.4688 55.4799C30.8446 56.2941 31.189 57.1082 31.5648 57.9224C31.6587 58.1416 32.0032 58.2042 32.2224 58.0789C32.4415 57.9224 32.5042 57.6719 32.3789 57.4213C32.0345 56.6385 31.6587 55.8243 31.2829 54.9789ZM21.7323 106.49C21.7323 106.49 21.7636 106.49 21.7323 106.49C21.7636 106.458 21.7636 106.49 21.7323 106.49Z" fill="black"/>
</g>
<defs>
<clipPath id="clip0_57_4401">
<rect width="175" height="175" fill="white"/>
</clipPath>
</defs>
</svg>
