<svg width="181" height="180" viewBox="0 0 181 180" fill="none" xmlns="http://www.w3.org/2000/svg">
<g clip-path="url(#clip0_82_5306)">
<rect width="180" height="180" transform="translate(0.5)" fill="white"/>
<path d="M62.3494 127.567C56.3682 130.879 49.5509 133.644 42.8622 132.326C36.1735 131.007 30.2243 124.094 32.2823 117.598C33.5686 113.546 37.5562 110.33 37.3633 106.086C37.1703 101.937 33.1828 99.236 30.0957 96.4705C22.8603 89.9425 19.2586 79.62 20.8665 70.0372C22.0885 62.5767 27.9733 54.7946 35.5303 55.5664C38.3923 55.8558 40.9648 57.335 43.7304 58.0425C57.8796 61.5798 70.3566 44.5686 84.8596 46.0799C88.6863 46.4658 92.3523 48.1702 96.179 47.9772C103.286 47.6235 108.495 41.1277 115.28 39.0053C120.297 37.3975 126.085 38.4586 130.234 41.7065C134.382 44.9544 136.762 50.3247 136.408 55.5985C136.054 61.0331 133.031 65.8567 131.166 70.9376C129.301 76.0506 128.883 82.482 132.838 86.2123C134.864 88.1096 137.662 88.9778 139.784 90.7786C143.804 94.2195 144.318 100.49 142.421 105.41C140.524 110.362 136.729 114.286 133.031 118.048" fill="#F4F6F9"/>
<path d="M170.528 114.833C169.338 108.723 169.885 101.873 166.026 97.0176C162.006 91.9689 153.549 91.3579 148.854 95.7635L148.018 95.6991L147.182 91.0363C146.764 88.5602 146.346 85.9876 145.928 83.2542V83.2221C146.121 83.2543 146.346 83.2864 146.539 83.3186C146.571 83.3186 146.603 83.3186 146.635 83.3186C146.828 83.3507 146.989 83.3507 147.182 83.3507C147.214 83.3507 147.246 83.3507 147.278 83.3507C147.471 83.3507 147.664 83.3507 147.889 83.3186C147.889 83.3186 147.889 83.3186 147.921 83.3186C148.146 83.2864 148.339 83.2543 148.564 83.2221H148.597C148.79 83.1899 148.95 83.1256 149.143 83.0613C149.208 83.0292 149.24 83.0292 149.304 82.997C149.433 82.9648 149.561 82.9005 149.69 82.8362C149.754 82.8041 149.819 82.7719 149.883 82.7397C150.012 82.6754 150.14 82.6111 150.269 82.5468C150.333 82.5146 150.365 82.4825 150.43 82.4503C150.59 82.3538 150.751 82.2252 150.912 82.0966C152.906 80.5209 153.613 77.5624 152.681 75.1828C152.584 74.9255 152.456 74.6682 152.327 74.411C152.23 74.2824 152.166 74.1216 152.07 73.9929C152.037 73.9608 152.005 73.8965 151.973 73.8643C151.909 73.7678 151.844 73.7035 151.748 73.607C151.716 73.5749 151.652 73.5106 151.619 73.4784C151.555 73.4141 151.491 73.3176 151.394 73.2533C151.362 73.2212 151.298 73.1568 151.266 73.1247C151.201 73.0604 151.105 72.9961 151.008 72.9317C150.976 72.8996 150.912 72.8674 150.88 72.8353C150.751 72.7388 150.623 72.6423 150.494 72.578C150.43 72.5459 150.397 72.5137 150.333 72.4815C150.237 72.4172 150.172 72.3851 150.076 72.3208C150.012 72.2886 149.947 72.2564 149.851 72.2243C149.786 72.1921 149.722 72.16 149.626 72.1278C149.529 72.0957 149.465 72.0635 149.368 72.0313C149.304 71.9992 149.24 71.967 149.175 71.967C149.079 71.9349 148.983 71.9027 148.918 71.8705C148.854 71.8705 148.822 71.8384 148.757 71.8384C148.404 71.7419 148.05 71.6776 147.664 71.6455C147.632 71.6455 147.6 71.6455 147.568 71.6455C147.439 71.6455 147.343 71.6454 147.214 71.6133C147.182 71.6133 147.117 71.6133 147.085 71.6133C146.957 71.6133 146.86 71.6133 146.732 71.6133C146.699 71.6133 146.667 71.6133 146.635 71.6133C146.506 71.6133 146.378 71.6455 146.281 71.6455L146.699 57.3997L137.631 54.1519C134.705 54.184 131.843 55.5668 129.495 57.3033C122.421 62.6092 115.507 68.076 109.268 72.7388C109.268 72.7388 109.268 72.7388 109.3 72.771C109.172 72.8674 109.043 72.9639 108.882 73.0604C108.882 73.0604 116.504 77.3051 120.234 79.331C120.234 79.331 117.726 86.3092 115.442 92.7407C112.291 89.8787 107.982 88.11 103.609 88.2708C99.2352 88.4316 94.8939 90.6183 92.6751 94.1877C91.2923 96.4066 90.7135 98.9792 89.6201 101.327C88.5268 103.674 86.6295 105.989 83.9604 106.44L82.9957 105.797C82.8671 105.668 82.7384 105.539 82.6419 105.411C82.6098 105.379 82.5777 105.346 82.5455 105.282C82.449 105.186 82.3846 105.089 82.2882 104.993C82.256 104.928 82.1917 104.896 82.1596 104.832C82.0953 104.735 81.9989 104.671 81.9346 104.575C81.9024 104.51 81.838 104.446 81.8058 104.414C81.7415 104.317 81.6773 104.253 81.613 104.157C81.5808 104.092 81.5164 104.028 81.4842 103.964C81.4199 103.867 81.3557 103.771 81.2914 103.674C81.2593 103.61 81.227 103.546 81.1948 103.481C81.1305 103.385 81.0662 103.256 81.0341 103.16C81.0019 103.095 80.9698 103.063 80.9377 102.999C80.8412 102.838 80.7768 102.677 80.7125 102.517C80.3909 101.777 80.2302 101.005 80.1659 100.201C80.1338 100.008 80.1337 99.8153 80.1337 99.5902C80.1337 99.3972 80.1337 99.2043 80.1015 98.9792C80.1015 97.1784 80.3909 95.3132 80.4231 93.4803C80.4231 93.2873 80.4231 93.0622 80.4231 92.8693C80.3588 90.1359 79.394 87.4669 77.8183 85.2158C75.4387 81.8072 71.6442 79.3311 67.4638 78.913C67.2387 78.8808 66.9813 78.8809 66.724 78.8809C66.1452 78.8809 65.5664 78.9452 65.0198 79.0738C63.8943 79.3632 62.8974 79.942 62.4794 81.0032C62.3829 81.2283 62.3507 81.4534 62.3186 81.6785C61.5146 81.0675 60.5498 80.5852 59.6172 80.1993C55.8227 78.5593 52.0925 76.6941 48.298 74.9898C46.4328 74.1537 44.5355 73.2855 42.5739 72.6423C41.7378 72.3529 40.9338 72.2243 40.1621 72.2243C34.5988 69.8768 29.9683 64.9246 28.0388 64.2814C26.1094 63.6383 24.8231 64.9246 26.1094 68.4619C27.1063 71.2274 30.4828 72.6102 31.8977 73.0925C31.2546 73.2533 30.6114 73.4463 30.0005 73.7035C26.9134 74.8933 24.1799 76.8549 21.5108 78.7844C20.7712 79.331 19.9994 79.8777 19.4528 80.6173C18.9061 81.357 18.6168 82.3539 18.9062 83.2221C19.1313 83.8652 19.7421 84.4119 20.3853 84.5084C20.128 84.9586 19.9352 85.441 19.8709 85.9555C19.7744 86.7916 20.1603 87.7563 20.9642 88.0457C21.5752 88.2708 22.2504 88.0779 22.8293 87.8206C25.1446 86.8559 26.7525 85.4409 28.0388 83.3507C28.2961 82.9327 28.6176 82.579 28.9392 82.2574C27.685 84.219 26.8169 86.3414 26.4632 88.4637C26.3345 89.2355 26.3023 90.2002 26.9133 90.7148C27.5886 91.2936 28.6819 91.0042 29.4537 90.5218C32.6373 88.5602 32.4444 84.7656 35.2742 82.5468C35.9174 82.0644 36.6891 81.6142 37.4931 81.7428C38.6507 81.9358 41.1591 83.0613 41.2555 84.2511C41.3842 85.859 40.2586 87.5312 38.9723 88.3673C36.9464 89.6857 34.7597 88.4637 32.7016 89.6536C31.7048 90.2324 30.933 91.4544 31.2868 92.5477C31.7048 93.9305 33.3448 94.4128 34.7597 94.6058C38.908 95.1525 43.1849 94.8952 47.2689 93.8662C49.8414 93.223 51.8996 92.7728 54.44 93.7054C54.6973 93.8019 54.9223 93.8983 55.1152 93.9948C55.0831 94.027 55.051 94.027 55.0188 94.0591C54.9223 94.1234 54.8259 94.1877 54.7294 94.2842C54.6651 94.3164 54.6008 94.3807 54.5686 94.4128C54.4722 94.4772 54.3757 94.5736 54.2793 94.6701C54.2149 94.7344 54.1828 94.7666 54.1185 94.8309C54.022 94.9274 53.9576 95.0238 53.8611 95.1203C53.829 95.1846 53.7647 95.2489 53.7325 95.2811C53.6682 95.3776 53.5717 95.474 53.5074 95.5705C53.4752 95.6348 53.4109 95.6991 53.3787 95.7635C53.3144 95.8599 53.2501 95.9886 53.1858 96.085C53.1536 96.1493 53.1215 96.2137 53.0894 96.278C53.0251 96.3744 52.9607 96.5031 52.9286 96.5995C52.8964 96.6639 52.8643 96.7282 52.8322 96.8246C52.7679 96.9533 52.7356 97.0497 52.7034 97.1784C52.6713 97.2427 52.6392 97.3392 52.6392 97.4035C52.607 97.5321 52.5749 97.6286 52.5106 97.7572C52.4784 97.8215 52.4784 97.918 52.4462 97.9823C52.4141 98.1109 52.382 98.2074 52.3498 98.336C52.3177 98.4325 52.3176 98.4968 52.2854 98.5933C52.2533 98.7219 52.2532 98.8184 52.2211 98.947C52.2211 99.0435 52.189 99.14 52.189 99.2365C52.189 99.3651 52.1568 99.4615 52.1568 99.5902C52.1568 99.6866 52.1568 99.7831 52.1246 99.8796C52.1246 99.9761 52.0925 100.105 52.0925 100.201C52.0925 100.298 52.0925 100.426 52.0925 100.523C52.0925 100.619 52.0925 100.748 52.0925 100.844C52.0925 100.973 52.0925 101.069 52.0925 101.198C52.0925 101.295 52.0925 101.391 52.0925 101.487C52.0925 101.616 52.1246 101.745 52.1246 101.873C52.1246 101.97 52.1247 102.034 52.1568 102.131C52.189 102.291 52.1889 102.484 52.2211 102.645C52.2211 102.677 52.2211 102.709 52.2211 102.742C52.3175 103.385 52.4462 103.996 52.607 104.607C52.6713 104.8 52.7035 105.025 52.7678 105.218C53.218 106.858 53.7647 108.498 54.1185 110.138C54.1506 110.331 54.2149 110.556 54.2471 110.749C54.3757 111.36 54.4399 112.003 54.5043 112.646C54.9223 118.659 51.3851 124.126 49.6164 129.915C49.5521 130.14 49.4878 130.365 49.4235 130.622C49.0376 132.005 48.7803 133.42 48.7159 134.867C48.6195 137.343 49.1662 139.787 50.2596 142.006C50.7098 142.906 51.2242 143.742 51.8031 144.546C53.4753 146.829 55.7263 148.694 58.2989 149.852C58.5562 149.981 58.8134 150.077 59.1029 150.174C59.2636 150.238 59.4243 150.302 59.6172 150.367C59.9388 150.463 60.2604 150.592 60.6142 150.656C61.1608 150.785 61.7075 150.913 62.2542 150.978C62.5115 151.01 62.7365 151.042 62.9938 151.074L66.1453 147.794C70.5187 143.742 78.9117 137.761 87.9801 140.623C101.165 144.803 131.714 141.266 145.863 130.654C160.013 120.042 179.918 131.201 179.918 131.201C175.126 126.988 171.782 121.136 170.528 114.833Z" fill="white"/>
<path d="M142.969 77.1761C142.84 76.9188 142.936 76.6616 143.129 76.5008C144.898 75.1824 147.246 74.7643 149.4 75.3432C150.011 75.5039 149.754 76.4365 149.143 76.2757C147.246 75.7612 145.22 76.1792 143.644 77.3369C143.419 77.5298 143.097 77.4012 142.969 77.1761ZM139.528 63.0269C139.528 63.059 139.56 63.059 139.56 63.0912C139.592 63.1234 139.592 63.1877 139.624 63.2198C139.656 63.3163 139.689 63.4128 139.721 63.5414C139.785 63.7987 140.075 63.9594 140.3 63.863C140.557 63.7987 140.718 63.5414 140.621 63.2841C140.364 62.4159 139.882 61.5798 139.271 60.9366C139.11 60.7437 138.756 60.7437 138.595 60.9366C138.402 61.1296 138.402 61.419 138.595 61.612C138.66 61.6763 138.724 61.7728 138.788 61.8371C138.82 61.8692 138.852 61.9014 138.885 61.9335L138.917 61.9657C138.917 61.9657 138.917 61.9657 138.917 61.9979C139.045 62.1586 139.142 62.3194 139.238 62.5124C139.335 62.6732 139.431 62.8339 139.528 63.0269ZM134.962 59.3288H135.058C135.154 59.3288 135.219 59.3609 135.315 59.3609C135.412 59.3609 135.508 59.3931 135.605 59.3931C135.637 59.3931 135.637 59.3931 135.669 59.3931C135.701 59.4574 135.765 59.4896 135.83 59.5217C136.055 59.6504 136.376 59.5861 136.505 59.3609C136.601 59.168 136.601 58.9751 136.505 58.7821C136.409 58.6213 136.248 58.5249 136.055 58.4927C135.798 58.4284 135.54 58.3962 135.283 58.3641C134.736 58.2997 134.222 58.2354 133.675 58.2354C133.418 58.2354 133.193 58.4605 133.193 58.7178C133.193 58.9751 133.418 59.2002 133.675 59.2002C134.061 59.2002 134.479 59.2323 134.865 59.2645C134.865 59.3288 134.897 59.3288 134.962 59.3288ZM128.401 63.8308C128.466 63.8308 128.498 63.8308 128.562 63.8308C128.659 63.8308 128.755 63.8308 128.852 63.8308C128.852 63.8308 128.916 63.8308 128.948 63.8308C128.98 63.8308 129.012 63.8308 129.077 63.863C129.173 63.8951 129.27 63.8951 129.366 63.9273C129.559 63.9916 129.623 64.0238 129.816 64.1202C129.913 64.1524 129.977 64.2167 130.074 64.281C130.106 64.281 130.106 64.3132 130.106 64.3132C130.106 64.3132 130.106 64.3132 130.138 64.3453C130.17 64.3775 130.202 64.4096 130.234 64.4418C130.524 64.6991 130.685 64.9563 130.781 65.3101C130.942 65.921 131.874 65.6638 131.714 65.0528C131.135 63.0269 128.401 62.2229 126.794 63.5736C126.601 63.7343 126.633 64.0881 126.794 64.2489C126.987 64.4418 127.276 64.4097 127.469 64.2489C127.501 64.2167 127.501 64.2167 127.501 64.2167C127.501 64.2167 127.501 64.2167 127.533 64.2167C127.565 64.1845 127.597 64.1524 127.662 64.1524C127.694 64.1202 127.758 64.1202 127.79 64.0881C127.822 64.0881 127.919 64.0238 127.919 64.0238C128.016 63.9916 128.305 63.8951 128.369 63.8951C128.241 63.863 128.369 63.8308 128.401 63.8308ZM135.058 67.0465C135.572 66.532 136.376 66.3391 137.052 66.5642C137.695 66.7571 138.209 67.336 138.402 67.9791C138.563 68.5901 139.496 68.3328 139.335 67.7219C139.078 66.725 138.306 65.921 137.309 65.6316C136.28 65.3101 135.122 65.6316 134.383 66.3712C133.932 66.7893 134.608 67.4967 135.058 67.0465ZM126.15 85.6013C125.507 86.2766 124.639 86.6625 123.706 86.5661C123.449 86.5339 123.224 86.7912 123.224 87.0484C123.224 87.3378 123.449 87.4986 123.706 87.5308C124.896 87.6594 126.086 87.1127 126.89 86.2445C127.726 85.3441 128.144 84.1543 127.951 82.9001C127.919 82.6429 127.597 82.5142 127.372 82.5786C127.083 82.6429 126.986 82.9001 127.051 83.1574C127.115 83.5754 127.051 84.0256 126.89 84.4758C126.729 84.8939 126.44 85.3119 126.15 85.6013ZM124.671 116.119C123.546 116.054 122.452 116.344 121.327 116.344C120.266 116.344 119.237 116.183 118.208 115.861C117.275 115.572 116.214 115.09 115.764 114.157C115.378 113.385 115.506 112.324 116.407 112.035C117.211 111.777 118.111 112.163 118.658 112.774C119.365 113.578 119.622 114.639 119.912 115.636C120.073 116.247 121.005 115.99 120.844 115.379C120.362 113.643 119.687 111.617 117.725 111.102C116.953 110.909 116.053 110.973 115.41 111.488C114.702 112.067 114.477 112.999 114.638 113.868C115.056 115.926 117.436 116.794 119.237 117.116C120.33 117.308 121.423 117.341 122.517 117.212C123.546 117.083 124.768 116.826 125.732 117.341C126.504 117.759 126.986 118.563 126.44 119.399C125.861 120.299 124.703 120.46 123.706 120.524C122.227 120.653 120.105 120.685 119.558 118.981C119.269 118.145 119.011 117.341 118.111 117.019C117.371 116.762 116.503 116.923 115.892 117.341C115.12 117.855 114.767 118.788 114.702 119.688C114.638 120.749 115.088 121.618 115.346 122.614C115.635 123.708 114.96 124.383 114.091 124.898C113.223 125.412 112.323 125.83 111.551 126.473C109.943 127.856 109.107 130.332 110.618 132.101C111.036 132.583 111.712 131.876 111.294 131.426C110.007 129.914 111.229 127.888 112.548 126.924C113.802 126.023 115.699 125.541 116.278 123.965C116.632 123 116.182 122.1 115.892 121.167C115.635 120.363 115.571 119.431 115.989 118.659C116.342 118.048 117.146 117.662 117.822 117.919C118.593 118.209 118.593 119.27 118.915 119.913C119.687 121.296 121.488 121.585 122.935 121.553C124.639 121.521 126.858 121.232 127.533 119.367C128.241 117.501 126.311 116.215 124.671 116.119ZM117.468 119.849C119.397 123.097 119.365 127.309 117.371 130.525C117.05 131.04 117.886 131.522 118.208 131.007C120.394 127.535 120.426 122.904 118.304 119.367C117.982 118.82 117.146 119.302 117.468 119.849ZM179.564 131.586C176.219 128.596 173.55 124.833 171.814 120.685C171.042 118.852 170.463 116.923 170.077 114.993C169.691 113.064 169.498 111.102 169.273 109.173C168.855 105.378 168.373 101.358 166.186 98.0784C162.52 92.6438 153.999 91.6469 149.175 96.1168C148.853 96.4062 148.467 96.1811 148.371 95.8917C148.886 98.5607 149.4 101.23 149.979 103.899C150.108 104.51 149.175 104.767 149.046 104.156C148.725 102.677 148.435 101.23 148.146 99.7506C147.085 94.3803 146.152 89.01 145.348 83.5754C144.384 83.286 143.483 82.8037 142.743 82.0962C142.551 81.9032 142.551 81.6138 142.743 81.4209C142.936 81.2279 143.226 81.2279 143.419 81.4209C145.284 83.2217 148.532 83.3825 150.558 81.7746C152.584 80.1668 153.163 76.951 151.844 74.7322C150.526 72.5133 147.406 71.4843 145.059 72.5133C144.802 72.6098 144.544 72.5133 144.416 72.256C144.319 71.9988 144.416 71.7415 144.673 71.6129C144.898 71.5164 145.123 71.4521 145.348 71.3878L144.191 71.1305C140.911 67.7218 142.519 64.0238 142.229 60.9366C141.811 56.306 139.464 55.9523 136.73 55.0197C134.576 55.1805 132.55 56.0166 130.749 57.1421C128.819 58.3641 127.019 59.8433 125.218 61.2261C123.385 62.641 121.52 64.0559 119.687 65.4708C116.407 68.0113 113.094 70.5517 109.782 73.0278C109.911 73.0921 110.007 73.1564 110.136 73.2208C113.577 75.1502 117.05 77.0475 120.523 78.9448C120.684 79.0412 120.812 79.2985 120.748 79.4914C120.491 80.1989 120.233 80.8742 120.008 81.5817C118.819 84.926 117.596 88.2704 116.407 91.5826C116.278 91.9685 116.149 92.3222 115.989 92.7081C115.989 92.8367 115.957 92.9654 115.86 93.0618C114.863 95.8595 113.834 98.6894 112.837 101.487C112.837 101.519 112.805 101.519 112.805 101.551C112.966 101.551 113.127 101.616 113.223 101.776C114.606 104.446 116.632 106.793 119.044 108.594C123.385 111.842 128.916 113.321 134.286 112.421C139.689 111.488 144.673 108.401 147.76 103.867C148.114 103.352 148.95 103.835 148.596 104.349C146.795 107.018 144.351 109.237 141.522 110.845C136.537 113.675 130.524 114.446 125.025 112.742C119.655 111.07 114.992 107.275 112.387 102.291C112.291 102.13 112.323 101.969 112.387 101.841C112.098 101.841 111.776 101.616 111.905 101.262C112.483 99.5898 113.094 97.9176 113.673 96.2454C114.059 95.1199 114.477 93.9944 114.863 92.9011C112.58 90.9073 109.782 89.5245 106.792 88.9779C101.743 88.0774 95.9546 89.9104 93.0926 94.3803C91.5169 96.8242 91.0346 99.7506 89.6518 102.291C88.5585 104.285 86.8541 106.118 84.6353 106.761C85.1819 107.308 85.7286 107.886 86.2431 108.497C87.0471 109.462 87.658 110.523 88.1082 111.713C89.9733 116.569 88.4297 122.1 86.9505 126.859C86.7576 127.438 85.825 127.213 86.018 126.602C86.3717 125.412 86.7255 124.222 87.0471 123C87.6581 120.556 88.1082 118.048 87.9474 115.54C87.7866 113.096 86.9505 110.781 85.3426 108.915C83.8312 107.147 81.9018 105.7 80.712 103.642C79.3293 101.23 79.5544 98.4643 79.7795 95.7952C79.876 94.5089 79.9725 93.1905 79.8439 91.9042C79.7152 90.8108 79.4578 89.7175 79.072 88.6884C78.3002 86.6625 77.0461 84.7974 75.4704 83.286C73.8947 81.7746 71.9973 80.6169 69.9071 79.9738C68.042 79.395 65.5659 78.9769 63.8294 80.1346C63.2506 80.5205 62.9611 81.0028 62.8325 81.5817C62.736 81.9676 62.7361 82.4178 62.7361 82.8358C62.7361 82.9323 62.7361 83.0609 62.7683 83.1574C62.8648 84.3794 62.929 85.5049 62.7039 86.7268C62.2537 88.9135 61.0318 90.9395 59.3596 92.3865C58.5235 93.1262 57.5588 93.705 56.4976 94.0909C56.4011 94.123 56.2725 94.1552 56.176 94.2195C55.8866 94.316 55.5972 94.4446 55.3399 94.5732C55.2756 94.6054 55.2112 94.6697 55.1469 94.7019C55.1148 94.734 55.0826 94.7662 55.0183 94.7983C54.6324 95.0878 54.2786 95.4736 53.9892 95.8595C52.7673 97.5639 52.4457 99.8149 52.6065 101.873C52.7995 104.574 53.8928 107.147 54.536 109.752C55.147 112.292 55.2112 114.832 54.6646 117.405C53.6355 122.261 51.0308 126.602 49.8088 131.393C49.2299 133.644 49.037 135.992 49.5194 138.307C49.9696 140.43 50.87 142.456 52.1242 144.224C54.6324 147.761 58.6521 150.334 63.0255 150.72C63.6365 150.784 63.6365 151.749 63.0255 151.685C61.9 151.588 60.8067 151.363 59.7455 151.042C55.4364 149.659 51.8026 146.347 49.841 142.295C48.8762 140.269 48.2974 138.018 48.2653 135.767C48.2331 133.259 48.8763 130.782 49.7124 128.435C51.3846 123.708 54.0536 119.045 54.0858 113.932C54.0858 111.038 53.089 108.304 52.3493 105.571C51.7062 103.191 51.3523 100.78 51.899 98.3678C52.2206 96.9529 52.9603 95.345 54.118 94.316C53.3141 94.0266 52.4779 93.8658 51.6096 93.8658C49.8731 93.8336 48.201 94.3803 46.4966 94.734C42.9593 95.5058 39.2934 95.7309 35.6917 95.3772C34.3733 95.2485 32.894 95.0878 31.8007 94.2517C30.7073 93.3834 30.4501 91.9685 31.1575 90.7465C31.9615 89.3316 33.5372 88.8171 35.0808 88.7849C35.8847 88.7528 36.6886 88.8171 37.4604 88.6563C38.2322 88.4955 38.9075 88.1096 39.4542 87.5629C39.9687 87.0484 40.4188 86.4374 40.6439 85.73C40.8047 85.2155 40.9977 84.5401 40.6439 84.0578C40.3224 83.6076 39.7758 83.3182 39.2934 83.0609C38.7789 82.8037 38.2322 82.5785 37.6856 82.4499C36.3349 82.1283 35.0807 83.3825 34.3733 84.4115C33.6336 85.4405 33.1834 86.6304 32.6046 87.7559C32.0258 88.9135 31.2862 89.9747 30.2572 90.7465C29.2281 91.5183 27.4917 92.2901 26.4627 91.0681C25.5623 90.0069 26.0445 88.3026 26.3661 87.1127C26.4626 86.759 26.5591 86.4053 26.6877 86.0837C25.6265 87.1127 24.3724 87.9167 22.9896 88.4633C22.1857 88.7849 21.2531 89.01 20.4492 88.4955C19.806 88.1096 19.4845 87.37 19.3881 86.6625C19.3237 86.0837 19.4524 85.5049 19.7096 84.9582C19.3237 84.7652 19.0022 84.508 18.7449 84.1543C18.1661 83.3182 18.2303 82.2248 18.6162 81.3244C19.002 80.424 19.7096 79.7487 20.4492 79.1377C21.2531 78.5267 22.0893 77.9157 22.9254 77.3369C24.5975 76.1471 26.334 74.9894 28.1991 74.1212C28.8744 73.7996 29.5819 73.478 30.3216 73.2529H30.2894C28.8744 72.5133 27.6203 71.3878 26.6235 70.1337C25.5623 68.8152 24.0187 66.4999 25.3372 64.8598C26.1733 63.8308 27.6525 63.6379 28.8423 64.1524C30.2251 64.7634 31.1575 66.0497 32.283 67.0144C35.5952 69.8121 39.84 71.1627 43.8919 72.7706C44.3421 72.9314 44.7923 73.1243 45.2103 73.2851C49.0371 74.8929 52.7994 76.7259 56.5618 78.4624C58.234 79.2342 60.0027 79.8773 61.6106 80.7777C61.7714 80.8742 61.9322 80.9707 62.0929 81.0672C62.7682 79.3307 64.7299 78.591 66.6272 78.5589C68.846 78.5267 71.1292 79.2663 73.0586 80.3597C75.0524 81.4852 76.7888 83.0609 78.1394 84.8939C79.4579 86.7268 80.4227 88.8492 80.7764 91.0681C81.2266 93.7693 80.6156 96.4705 80.6478 99.1717C80.68 100.555 80.905 101.905 81.5803 103.127C82.1592 104.188 82.9631 105.089 83.8313 105.925C83.8635 105.957 83.9278 106.021 83.9599 106.053C86.9827 105.507 88.7514 102.709 89.8126 100.04C90.8738 97.3388 91.6778 94.5089 93.6715 92.3222C95.4402 90.4249 97.7875 89.0743 100.296 88.399C105.537 86.9519 111.229 88.5598 115.346 92.0006C116.149 89.7175 116.986 87.4665 117.79 85.1833C118.465 83.3503 119.108 81.4852 119.783 79.6522C118.915 79.1699 118.047 78.7197 117.211 78.2373C114.381 76.6938 111.583 75.118 108.785 73.5745C108.432 73.3816 108.496 72.9313 108.785 72.7384C110.779 71.2592 112.741 69.7799 114.702 68.2685C118.433 65.4065 122.131 62.5445 125.893 59.6825C127.662 58.3319 129.43 56.8527 131.392 55.7915C132.582 55.1483 133.836 54.666 135.122 54.3444C134.286 53.9263 133.418 53.3797 132.614 52.5757C130.556 50.5498 129.591 43.9254 133.739 40.5811C137.18 49.553 143.451 45.2439 150.3 50.9357C155.606 55.3413 152.423 66.532 148.403 71.2913C150.236 71.6129 151.908 72.6741 152.873 74.2819C154.449 76.951 153.774 80.6491 151.33 82.5786C150.204 83.479 148.789 83.897 147.374 83.897C147.085 83.897 146.795 83.8648 146.506 83.8327C146.731 85.2798 146.956 86.7268 147.181 88.1418C147.599 90.7144 148.049 93.2548 148.532 95.7952C148.532 95.6666 148.564 95.5701 148.693 95.4736C151.49 92.9011 155.446 91.9685 159.144 92.5795C162.488 93.1262 165.479 94.9913 167.344 97.8533C169.531 101.23 169.981 105.314 170.431 109.205C170.656 111.199 170.849 113.192 171.267 115.154C171.685 117.18 172.328 119.174 173.197 121.071C174.901 124.833 177.345 128.21 180.432 130.975C180.721 131.329 180.014 132.004 179.564 131.586ZM31.0611 72.4168C31.2862 72.5133 31.5113 72.5776 31.7364 72.6419C32.7333 72.867 33.7944 72.7384 34.8556 72.7706C36.1098 72.3204 37.4282 71.9666 38.7467 71.8058C36.3992 70.7447 34.1161 69.5548 32.0902 67.9791C31.5435 67.5611 31.0289 67.1109 30.5466 66.6607C30.032 66.1783 29.5497 65.6316 28.9709 65.2457C28.0705 64.6348 26.6234 64.3775 25.9159 65.4387C25.4979 66.114 25.8195 67.0144 26.1411 67.6575C26.5913 68.5258 27.2022 69.3297 27.8454 70.0693C28.7779 71.0019 29.8391 71.838 31.0611 72.4168ZM20.0954 83.9613C20.5456 83.2539 21.0923 82.6107 21.5747 82.0319C22.668 80.6813 23.8579 79.4593 25.1764 78.3338C27.6847 76.1792 30.5466 74.4427 33.6337 73.2529C32.9906 73.3494 32.3796 73.478 31.7686 73.6388C28.9388 74.4106 26.3339 75.9541 23.9221 77.6263C23.1825 78.1408 22.4429 78.6875 21.7033 79.2342C21.028 79.7487 20.2884 80.2632 19.7739 80.9707C19.3558 81.5817 19.0343 82.4178 19.3237 83.1574C19.4523 83.479 19.7417 83.8005 20.0954 83.9613ZM61.7714 81.9032C60.7423 81.1636 59.4881 80.6813 58.3305 80.1668C56.4653 79.3307 54.6647 78.4946 52.8317 77.6263C51.063 76.7902 49.2944 75.9863 47.4935 75.1824C47.3971 75.1824 47.3006 75.1824 47.2042 75.118C45.339 74.1533 43.2488 73.5102 41.2229 72.8027C39.5185 72.5133 37.8141 72.8992 36.1741 73.3815C34.5662 73.8639 33.0227 74.4749 31.5113 75.2145C28.585 76.6938 25.9159 78.6875 23.6649 81.0672C23.0861 81.6781 22.5072 82.3213 21.9927 82.9966C21.7354 83.3182 21.4782 83.6719 21.2209 84.0256C20.9958 84.3472 20.8029 84.6688 20.61 85.0225C20.61 85.0547 20.5778 85.0547 20.5778 85.0868C20.2562 85.7621 20.0954 86.5982 20.5456 87.2414C21.0923 88.0131 22.0571 87.6594 22.7324 87.3378C24.1473 86.7268 25.4015 85.8586 26.4305 84.7009C26.945 84.1221 27.3308 83.4468 27.781 82.8036C28.0061 82.5142 28.2313 82.257 28.4885 81.9997C31.1576 77.7871 35.6597 74.4106 40.7727 74.4427C41.3837 74.4427 41.3837 75.4075 40.7727 75.4075C40.1295 75.4075 39.4863 75.4396 38.8753 75.5682C36.8815 75.922 35.0486 76.7902 33.4407 77.98C31.7364 79.2342 30.2894 80.8742 29.1639 82.675C28.5207 83.7041 28.0062 84.7974 27.5882 85.9229C27.3631 86.5339 27.1701 87.177 27.0414 87.788C26.9128 88.399 26.7198 89.1065 26.8485 89.7175C27.17 91.4218 29.2925 90.0712 30 89.4281C31.833 87.7237 32.2831 85.119 33.8267 83.1895C34.6949 82.1283 36.0777 81.035 37.557 81.2601C38.6181 81.4209 39.7437 81.9676 40.6119 82.6107C41.03 82.9323 41.4479 83.3182 41.6087 83.8327C41.8016 84.4115 41.7052 85.119 41.5122 85.6656C41.0942 87.0484 40.0652 88.3347 38.7789 88.9779C37.2996 89.7175 35.756 89.3637 34.2125 89.5888C32.9583 89.7818 31.2862 90.843 31.6721 92.3544C31.9936 93.5442 33.4728 93.8979 34.534 94.0909C36.2705 94.3803 38.0393 94.4124 39.7758 94.3803C41.5444 94.3481 43.3131 94.1552 45.0496 93.8336C46.7217 93.5121 48.3618 92.9975 50.0661 92.7724C51.3846 92.6116 52.6709 92.676 53.925 93.0297C54.2466 93.1262 54.5682 93.2226 54.8897 93.3834C54.954 93.4156 54.9862 93.4156 55.0183 93.4477C55.2113 93.3513 55.372 93.2869 55.5971 93.2226C57.7838 92.5473 59.6489 90.9395 60.7423 88.9457C61.289 87.9488 61.6749 86.8555 61.8036 85.73C62.0287 84.4758 61.6427 83.1895 61.7714 81.9032Z" fill="black"/>
<path d="M14.5659 109.945L22.1549 113.643C21.5761 114.415 20.6758 114.961 19.7111 115.122C18.0711 115.347 16.3666 114.479 15.4341 113.096C14.8231 112.164 14.5338 111.038 14.5659 109.945ZM34.9215 85.6659C34.3426 85.4729 33.796 85.9553 33.378 86.3733C30.7732 89.1067 28.3614 91.9687 26.0782 94.9915C25.628 94.8307 25.1456 94.7021 24.6311 94.6699C22.573 94.477 20.4507 95.3452 19.0036 96.8245C17.1063 98.7218 16.1095 101.584 13.762 102.902C12.3149 103.738 10.2246 104.092 9.80654 105.7L9.29199 105.539C11.4787 107.083 13.9228 108.24 16.3346 109.366C20.4186 111.295 24.5346 113.257 28.6186 115.186C29.1653 113.064 28.2648 113.064 27.7825 110.845C27.3644 108.883 28.7472 106.44 29.1331 104.478C29.5512 102.388 30.1299 100.169 29.3903 98.1429C29.0366 97.2104 28.4256 96.4386 27.6539 95.8276C30.0978 93.3836 32.4453 90.8432 34.6963 88.2385C35.0179 87.8526 35.3717 87.4345 35.4682 86.92C35.5647 86.4055 35.4038 85.8588 34.9215 85.6659Z" fill="#FFE945"/>
<path d="M8.64805 99.3974C8.55158 99.6225 8.19797 99.6869 7.97287 99.5582C7.71561 99.4296 7.68346 99.1402 7.81208 98.8829C8.90543 96.3425 11.0277 94.3166 13.6324 93.3519C13.8897 93.2554 14.147 93.4483 14.2114 93.6734C14.2757 93.9307 14.1149 94.188 13.8898 94.2523C11.5423 95.1848 9.64493 97.0821 8.64805 99.3974ZM1.44484 98.4649C3.14918 94.3487 6.33285 90.9079 10.2239 88.7534C11.3494 88.1424 12.507 87.66 13.729 87.2741C14.3078 87.0812 14.0826 86.1486 13.4717 86.3416C8.96962 87.7565 5.0143 90.7471 2.40956 94.6703C1.66994 95.7637 1.05901 96.9535 0.544495 98.1755C0.287236 98.7865 1.21974 99.0437 1.44484 98.4649ZM33.0556 104.285C33.5701 106.536 33.5057 108.852 32.7982 111.038C32.6053 111.617 33.5378 111.874 33.7308 111.296C34.4704 108.948 34.5348 106.44 33.9881 104.028C33.8595 103.417 32.927 103.674 33.0556 104.285ZM39.2941 100.008C41.4808 103.899 41.931 108.659 40.5804 112.904C40.3874 113.482 41.32 113.74 41.5129 113.161C42.96 108.659 42.4455 103.642 40.1302 99.5261C39.8408 98.9794 39.0047 99.4939 39.2941 100.008Z" fill="black"/>
<path d="M95.216 31.4809C95.023 31.288 95.0552 30.9986 95.216 30.8056C95.4089 30.6127 95.6984 30.6448 95.8913 30.8056L95.9235 30.8378C95.9557 30.8699 95.9556 30.87 95.8913 30.8056C95.9235 30.8056 95.9555 30.8378 95.9555 30.8378C95.9877 30.8699 96.0199 30.8699 96.0521 30.8699C96.0843 30.9021 96.1164 30.8699 96.0199 30.8699C96.0842 30.8699 96.1486 30.9021 96.2129 30.9343C96.245 30.9343 96.2771 30.9343 96.3093 30.9664C96.2128 30.9343 96.245 30.9664 96.3093 30.9664C96.3736 30.9664 96.4379 30.9664 96.4701 30.9664C96.5022 30.9664 96.5344 30.9664 96.5987 30.9664C96.4701 30.9664 96.5344 30.9664 96.5987 30.9664C96.663 30.9664 96.7273 30.9343 96.7595 30.9343C96.7916 30.9343 96.8239 30.9021 96.856 30.9021C96.7596 30.9021 96.7917 30.9343 96.8238 30.9021C96.8882 30.8699 96.9203 30.8378 96.9846 30.8056C97.0168 30.8056 97.049 30.7735 97.049 30.7413C97.049 30.7413 96.9525 30.8056 97.0168 30.7735C97.049 30.7413 97.1133 30.7092 97.1454 30.6448C97.1454 30.6448 97.2098 30.5484 97.1776 30.6127C97.1455 30.677 97.1776 30.6127 97.1776 30.5805C97.2098 30.5484 97.2097 30.5162 97.2418 30.4841C97.2418 30.4519 97.274 30.4519 97.274 30.4197C97.274 30.4519 97.2418 30.4519 97.2418 30.4841C97.2418 30.4519 97.274 30.3876 97.274 30.3233C97.274 30.3233 97.274 30.2268 97.3062 30.2268C97.3062 30.2911 97.3062 30.3233 97.3062 30.259V30.2268C97.3062 30.1625 97.3062 30.1303 97.3062 30.066C97.3062 30.0017 97.3062 30.0339 97.3062 30.0982C97.3062 30.066 97.3062 30.066 97.3062 30.0339C97.3062 30.0017 97.3062 30.0017 97.3062 29.9695L97.2418 29.7766C97.2418 29.7766 97.3061 29.8731 97.2418 29.7766C97.2418 29.7444 97.2098 29.7444 97.2098 29.7123C97.1776 29.648 97.1454 29.6158 97.1132 29.5515C97.0489 29.455 97.1775 29.6158 97.1132 29.5515C97.0811 29.5193 97.0812 29.5193 97.049 29.4872C97.0169 29.455 96.9203 29.3586 96.9203 29.3586C96.9203 29.3586 97.0168 29.4229 96.9524 29.3907C96.9203 29.3585 96.8882 29.3585 96.8882 29.3264C96.8561 29.3264 96.8238 29.2942 96.7917 29.2942C96.7595 29.2942 96.7596 29.2621 96.7274 29.2621H96.7595C96.7916 29.2621 96.7916 29.2942 96.7595 29.2621C96.7273 29.2621 96.7274 29.2621 96.6952 29.2299C96.6631 29.2299 96.6308 29.1978 96.5987 29.1978C96.5665 29.1978 96.5666 29.1978 96.5345 29.1978C96.5666 29.1978 96.5665 29.1978 96.5987 29.1978H96.5345C96.5023 29.1978 96.4701 29.1978 96.4379 29.1978C96.4057 29.1978 96.4058 29.1978 96.3737 29.1978C96.4058 29.1978 96.4057 29.1978 96.4379 29.1978C96.4057 29.2299 96.3414 29.2299 96.2771 29.2299C96.245 29.2299 96.245 29.2299 96.2129 29.2621C96.1807 29.2942 96.1808 29.2621 96.2451 29.2621C96.2451 29.2942 96.1807 29.2942 96.1485 29.2942C96.1164 29.3264 96.0521 29.3586 96.0199 29.3586C95.9234 29.4229 96.0199 29.3907 96.0199 29.3586L95.9555 29.4229C95.9234 29.455 95.8913 29.4872 95.8591 29.5193L95.8269 29.5515C95.8591 29.4872 95.8913 29.4872 95.8591 29.5193C95.8591 29.5515 95.8269 29.5515 95.8269 29.5836C95.7948 29.648 95.7627 29.6801 95.7305 29.7444C95.7305 29.7766 95.6983 29.7766 95.6983 29.8087C95.6983 29.7766 95.7305 29.7766 95.7305 29.7444L95.6983 29.8087C95.6662 29.8731 95.6661 29.9374 95.634 29.9695C95.634 30.0017 95.634 30.0017 95.634 30.0339C95.634 29.9695 95.634 29.9374 95.634 29.9695C95.634 30.0017 95.634 30.0339 95.634 30.0339C95.634 30.0982 95.634 30.1625 95.634 30.2268C95.634 30.3233 95.634 30.1946 95.634 30.1946C95.634 30.1946 95.634 30.2589 95.6661 30.2911C95.6661 30.3233 95.7627 30.5162 95.6983 30.3876C95.7948 30.6448 95.7627 30.9021 95.5376 31.0629C95.3446 31.1915 94.9908 31.1272 94.8622 30.9021C94.7014 30.5162 94.6372 30.1303 94.7658 29.7123C94.8623 29.3585 95.0552 29.0048 95.3446 28.7797C95.8913 28.2652 96.6631 28.1687 97.3384 28.5225C97.9494 28.844 98.3674 29.5837 98.3031 30.259C98.2388 30.9986 97.7563 31.5453 97.081 31.7704C96.4057 32.0598 95.6983 31.9311 95.216 31.4809ZM54.4405 38.3304C55.1158 38.9093 55.8233 39.5203 56.4986 40.0991C56.6915 40.2599 56.981 40.292 57.1739 40.0991C57.3347 39.9062 57.3669 39.5846 57.1739 39.4238C56.4986 38.845 55.791 38.234 55.1157 37.6551C54.9228 37.4944 54.6335 37.4622 54.4405 37.6551C54.2798 37.8159 54.2476 38.1375 54.4405 38.3304ZM86.0833 64.5065C85.9869 66.5646 85.8904 68.6227 85.7939 70.7129C85.7618 71.3239 86.7265 71.3239 86.7587 70.7129C86.8551 68.6548 86.9516 66.5968 87.048 64.5065C87.0802 63.8955 86.1155 63.8955 86.0833 64.5065Z" fill="black"/>
</g>
<defs>
<clipPath id="clip0_82_5306">
<rect width="180" height="180" fill="white" transform="translate(0.5)"/>
</clipPath>
</defs>
</svg>
